<?xml version="1.0" encoding="utf-8"?>
<!-- Generator: Adobe Illustrator 19.2.1, SVG Export Plug-In . SVG Version: 6.00 Build 0)  -->
<svg version="1.1" id="Layer_1" xmlns="http://www.w3.org/2000/svg" xmlns:xlink="http://www.w3.org/1999/xlink" x="0px" y="0px"
	 viewBox="0 0 96.1 96.1" style="enable-background:new 0 0 96.1 96.1;" xml:space="preserve">
<title>Untitled-1</title>
<path d="M48,1.5C22.2,1.5,1.3,22.4,1.3,48.2c0,20.1,12.9,37.9,31.9,44.3c2.4,0.4,3.2-1,3.2-2.3c0-1.2,0-4-0.1-7.9
	c-12.9,2.8-15.7-6.3-15.7-6.3c-2.1-5.4-5.2-6.8-5.2-6.8c-4.2-2.9,0.3-2.8,0.3-2.8c4.7,0.3,7.2,4.8,7.2,4.8
	c4.2,7.1,10.9,5.1,13.6,3.9c0.2-2.4,1.3-4.6,3-6.2c-10.4-1.2-21.3-5.2-21.3-23.1c-0.1-4.6,1.7-9.1,4.8-12.5c-1.4-4-1.3-8.4,0.5-12.4
	c0,0,3.9-1.3,12.8,4.8c7.7-2.1,15.7-2.1,23.4,0c8.9-6,12.8-4.8,12.8-4.8c1.7,3.9,1.9,8.3,0.5,12.4c3.1,3.4,4.9,7.9,4.8,12.5
	c0,18-11,21.9-21.3,23.1c1.7,1.4,3.2,4.3,3.2,8.6c0,6.2,0,11.3,0,12.8c0,1.2,0.8,2.7,3.2,2.2c24.5-8.2,37.7-34.6,29.5-59.1
	C86,14.3,68.1,1.5,48,1.5"/>
</svg>
