<svg id="Layer_1" data-name="Layer 1" xmlns="http://www.w3.org/2000/svg" viewBox="0 0 40 40"><defs><style>.cls-1{fill:#815343;}.cls-2{fill:#fff;}</style></defs><title>instagram</title><path class="cls-1" d="M20,40A20,20,0,1,0,0,20,20,20,0,0,0,20,40" transform="translate(0)"/><path class="cls-2" d="M26.14,10H13.87A3.87,3.87,0,0,0,10,13.86V26.14A3.87,3.87,0,0,0,13.87,30H26.14A3.87,3.87,0,0,0,30,26.14V13.86A3.87,3.87,0,0,0,26.14,10Zm1.11,2.31h0.44v3.39H24.31V12.31h2.95Zm-10.1,5.64A3.51,3.51,0,1,1,16.48,20,3.52,3.52,0,0,1,17.15,17.95Zm10.9,8.19a1.92,1.92,0,0,1-1.92,1.92H13.87A1.92,1.92,0,0,1,12,26.14V17.95h3a5.47,5.47,0,1,0,10.13,0h3v8.19Z" transform="translate(0)"/></svg>