<svg id="Layer_1" data-name="Layer 1" xmlns="http://www.w3.org/2000/svg" viewBox="0 0 40 40"><defs><style>.cls-1{fill:#5e8fae;}.cls-2{fill:#fff;}</style></defs><title>tumblr</title><path class="cls-1" d="M20,40A20,20,0,1,0,0,20,20,20,0,0,0,20,40" transform="translate(0 0)"/><path class="cls-2" d="M20.22,10v5.05H25v3.14H20.22v5.13a8.15,8.15,0,0,0,.18,2.23,1.51,1.51,0,0,0,.69.79,2.88,2.88,0,0,0,1.52.4,5.46,5.46,0,0,0,3-1v3.16a12,12,0,0,1-2.32.85,9.77,9.77,0,0,1-2.25.24,7.79,7.79,0,0,1-2.43-.35,5.24,5.24,0,0,1-1.8-1,3.57,3.57,0,0,1-1-1.36,5.9,5.9,0,0,1-.29-2.09v-7H13.3V15.36a5.9,5.9,0,0,0,2-1.1,5.47,5.47,0,0,0,1.35-1.72,7.76,7.76,0,0,0,.7-2.55h2.84Z" transform="translate(0 0)"/></svg>