<?xml version="1.0" encoding="utf-8"?>
<!-- Generator: Adobe Illustrator 19.2.1, SVG Export Plug-In . SVG Version: 6.00 Build 0)  -->
<svg version="1.1" id="Layer_1" xmlns="http://www.w3.org/2000/svg" xmlns:xlink="http://www.w3.org/1999/xlink" x="0px" y="0px"
	 viewBox="0 0 40 40" style="enable-background:new 0 0 40 40;" xml:space="preserve">
<style type="text/css">
	.st0{fill:#78CBEF;}
</style>
<title>Twitter</title>
<path class="st0" d="M39.6,8.8c-1.5,0.7-3,1.1-4.6,1.3c1.7-1,2.9-2.6,3.5-4.4c-1.6,0.9-3.3,1.6-5.1,2c-3-3.2-8.1-3.4-11.4-0.4
	c-2.1,2-3,4.9-2.3,7.7c-6.5-0.3-12.5-3.4-16.6-8.4c-2.1,3.7-1,8.4,2.5,10.8c-1.3,0-2.5-0.4-3.6-1v0.1c0,3.8,2.7,7.1,6.5,7.8
	c-0.7,0.2-1.4,0.3-2.1,0.3c-0.5,0-1,0-1.5-0.1c1.1,3.3,4.1,5.5,7.5,5.6c-3.4,2.6-7.6,3.9-11.9,3.4c10.7,6.8,24.8,3.7,31.7-6.9
	c2.4-3.7,3.6-8,3.6-12.4c0-0.4,0-0.7,0-1C37.2,11.8,38.6,10.4,39.6,8.8"/>
</svg>
