<?xml version="1.0" standalone="no"?>
<!DOCTYPE svg PUBLIC "-//W3C//DTD SVG 20010904//EN"
 "http://www.w3.org/TR/2001/REC-SVG-20010904/DTD/svg10.dtd">
<svg version="1.0" xmlns="http://www.w3.org/2000/svg"
 width="260.000000pt" height="260.000000pt" viewBox="0 0 260.000000 260.000000"
 preserveAspectRatio="xMidYMid meet">
<metadata>
Created by potrace 1.11, written by Peter Selinger 2001-2013
</metadata>
<g transform="translate(0.000000,260.000000) scale(0.100000,-0.100000)"
fill="#000000" stroke="none">
<path d="M675 2396 c-43 -19 -74 -59 -130 -167 -26 -52 -148 -267 -271 -479
-269 -467 -261 -451 -245 -487 7 -16 148 -264 314 -552 220 -381 308 -526 325
-532 31 -12 1175 -11 1226 1 22 5 52 21 67 37 23 24 565 952 607 1040 20 42
32 16 -200 418 -102 176 -220 383 -262 459 -115 206 -149 253 -194 265 -60 17
-1199 14 -1237 -3z m1459 -615 c152 -263 276 -484 276 -491 0 -7 -124 -228
-276 -492 l-277 -478 -559 2 -559 3 -279 482 -278 483 280 485 280 485 558 0
557 0 277 -479z"/>
<path d="M670 1290 l0 -372 188 4 c178 3 190 4 243 29 115 54 178 141 199 272
28 178 -47 336 -193 403 -60 28 -67 29 -249 32 l-188 4 0 -372z m321 229 c66
-14 122 -63 143 -126 24 -70 21 -158 -8 -219 -41 -88 -110 -123 -243 -124
l-63 0 0 240 0 240 60 0 c32 0 82 -5 111 -11z"/>
<path d="M1310 1595 l0 -65 115 0 115 0 0 -305 0 -305 80 0 80 0 0 305 0 305
115 0 115 0 0 65 0 65 -310 0 -310 0 0 -65z"/>
</g>
</svg>
