<svg xmlns="http://www.w3.org/2000/svg" viewBox="0 0 357.21 78.71"><title>logo-min</title><path d="M102.7 54.93V24.4h10.36a15.73 15.73 0 0 1 6.39 1.2 13 13 0 0 1 4.55 3.27 13.79 13.79 0 0 1 2.75 4.84 18.6 18.6 0 0 1 .92 5.91 18.2 18.2 0 0 1-1 6.3 13.67 13.67 0 0 1-2.95 4.82 13.16 13.16 0 0 1-4.6 3.1 15.86 15.86 0 0 1-6 1.1H102.7zm22-15.31a15.76 15.76 0 0 0-.77-5.05 11.43 11.43 0 0 0-2.26-4A10.12 10.12 0 0 0 118 28a12.42 12.42 0 0 0-4.94-.92h-7.35v25.2h7.35a12.2 12.2 0 0 0 5-1 10.19 10.19 0 0 0 3.63-2.67 11.57 11.57 0 0 0 2.21-4 16 16 0 0 0 .77-4.99zm13.77 15.74a7.91 7.91 0 0 1-2.95-.54 7.43 7.43 0 0 1-2.37-1.48 6.68 6.68 0 0 1-2.15-4.95 5.52 5.52 0 0 1 .69-2.71 6.55 6.55 0 0 1 1.94-2.15 9.47 9.47 0 0 1 3-1.4 13.68 13.68 0 0 1 3.78-.49 20.72 20.72 0 0 1 3.48.3 15.18 15.18 0 0 1 3.14.86v-2a6.5 6.5 0 0 0-1.68-4.71 6.14 6.14 0 0 0-4.64-1.74 9.88 9.88 0 0 0-3.53.69 17 17 0 0 0-3.65 2l-1-1.94a15.13 15.13 0 0 1 8.43-2.92 9 9 0 0 1 6.62 2.37 8.75 8.75 0 0 1 2.37 6.45v10.1a1 1 0 0 0 1.08 1.2v2.58a7 7 0 0 1-1.12.13 2.51 2.51 0 0 1-1.74-.56 2.1 2.1 0 0 1-.67-1.45l-.09-1.76a10.16 10.16 0 0 1-3.89 3.1 12 12 0 0 1-5.05 1.02zm.69-2.24a10.1 10.1 0 0 0 4.19-.86 6.85 6.85 0 0 0 2.9-2.28 2.69 2.69 0 0 0 .58-.84 2.15 2.15 0 0 0 .19-.84v-3.65a18 18 0 0 0-3-.86 17 17 0 0 0-3.2-.3 8.92 8.92 0 0 0-5 1.29 3.92 3.92 0 0 0-1.94 3.4 4.63 4.63 0 0 0 .41 1.93 4.89 4.89 0 0 0 1.12 1.57 5.22 5.22 0 0 0 1.7 1.05 5.71 5.71 0 0 0 2.05.39zm18.02 1.81V34.85h-3.1v-2.32h3.1v-.6a10.55 10.55 0 0 1 1.76-6.47 5.7 5.7 0 0 1 4.82-2.34 8.63 8.63 0 0 1 2.58.39 7.5 7.5 0 0 1 2.15 1l-.9 2.11a4.38 4.38 0 0 0-1.48-.73 6.33 6.33 0 0 0-1.78-.26 3.55 3.55 0 0 0-3.14 1.59 8.21 8.21 0 0 0-1.07 4.6v.69h6.19v2.32h-6.21v20.1h-2.92zM168.4 53l15.14-18.23h-14.79v-2.24h18v2l-15.12 18.21h15.05v2.19H168.4V53zm55.08-25.93H212.6v27.86h-3V27.07h-10.89V24.4h24.77v2.67zm22.79 27.86h-2.92V42.42A10.1 10.1 0 0 0 242 36.7a4.39 4.39 0 0 0-3.85-1.89 6.57 6.57 0 0 0-2.47.49 9.19 9.19 0 0 0-2.3 1.35 9.32 9.32 0 0 0-1.87 2 8.57 8.57 0 0 0-1.18 2.54v13.74h-2.92V23.54h2.92V37.6a10.15 10.15 0 0 1 3.7-4 9.56 9.56 0 0 1 5.12-1.46 6.88 6.88 0 0 1 3.27.71 6.06 6.06 0 0 1 2.19 2 8.66 8.66 0 0 1 1.25 3.05 18.61 18.61 0 0 1 .39 3.93v13.1zm15.73.43a10.63 10.63 0 0 1-4.47-.92 11 11 0 0 1-3.5-2.52 11.39 11.39 0 0 1-2.3-3.7 12.14 12.14 0 0 1-.82-4.43 12 12 0 0 1 .84-4.47 11.71 11.71 0 0 1 2.32-3.7 11.27 11.27 0 0 1 3.5-2.54 10.31 10.31 0 0 1 4.43-.95 10.46 10.46 0 0 1 4.45.95 11.2 11.2 0 0 1 3.55 2.54 11.71 11.71 0 0 1 2.32 3.7 12 12 0 0 1 .84 4.47 12.16 12.16 0 0 1-.82 4.43 11.41 11.41 0 0 1-2.3 3.7 10.92 10.92 0 0 1-3.53 2.52 10.77 10.77 0 0 1-4.51.92zm-8.13-11.52a9.35 9.35 0 0 0 .65 3.5 9.5 9.5 0 0 0 1.74 2.84 7.86 7.86 0 0 0 2.58 1.91 7.42 7.42 0 0 0 3.16.69 7.24 7.24 0 0 0 3.16-.71 8.39 8.39 0 0 0 2.6-1.94 9.2 9.2 0 0 0 1.76-2.86 9.89 9.89 0 0 0 0-7 9.17 9.17 0 0 0-1.76-2.88 8.41 8.41 0 0 0-2.6-1.94 7.24 7.24 0 0 0-3.16-.71 7.1 7.1 0 0 0-3.14.71 8.33 8.33 0 0 0-2.58 2 9.44 9.44 0 0 0-1.76 2.9 9.69 9.69 0 0 0-.6 3.49zm57.54 11.09h-2.92V42.42q0-3.91-1.25-5.76a4.17 4.17 0 0 0-3.7-1.85 6.28 6.28 0 0 0-2.43.47 7.5 7.5 0 0 0-2.11 1.33 9.15 9.15 0 0 0-1.7 2 9.81 9.81 0 0 0-1.12 2.6v13.72h-2.92V42.42q0-4-1.2-5.81a4.14 4.14 0 0 0-3.7-1.81 6.6 6.6 0 0 0-4.51 1.76 9.81 9.81 0 0 0-2.85 4.65v13.72h-2.92v-22.4h2.67v5.07a10.6 10.6 0 0 1 3.61-4 8.94 8.94 0 0 1 4.95-1.44 6.37 6.37 0 0 1 4.54 1.59 6.94 6.94 0 0 1 2.09 4.17q3.14-5.76 8.64-5.76a6.82 6.82 0 0 1 3.2.69 5.42 5.42 0 0 1 2.11 2 9.18 9.18 0 0 1 1.11 2.99 19.92 19.92 0 0 1 .37 4v13.09zm11.83.43a7.92 7.92 0 0 1-2.95-.54 7.43 7.43 0 0 1-2.36-1.48 6.68 6.68 0 0 1-2.13-4.95 5.52 5.52 0 0 1 .69-2.71 6.54 6.54 0 0 1 1.93-2.15 9.47 9.47 0 0 1 3-1.4 13.68 13.68 0 0 1 3.78-.49 20.73 20.73 0 0 1 3.48.3 15.18 15.18 0 0 1 3.14.86v-2a6.5 6.5 0 0 0-1.68-4.71 6.14 6.14 0 0 0-4.64-1.74 9.88 9.88 0 0 0-3.53.69 17 17 0 0 0-3.66 2l-1-1.94a15.13 15.13 0 0 1 8.43-2.92 9 9 0 0 1 6.62 2.37 8.74 8.74 0 0 1 2.36 6.45v10.1a1 1 0 0 0 1.08 1.2v2.58a7 7 0 0 1-1.12.13 2.51 2.51 0 0 1-1.74-.56 2.1 2.1 0 0 1-.67-1.55l-.09-1.76a10.16 10.16 0 0 1-3.89 3.1 12 12 0 0 1-5.05 1.12zm.69-2.24a10.09 10.09 0 0 0 4.19-.86A6.84 6.84 0 0 0 331 50a2.66 2.66 0 0 0 .58-.84 2.15 2.15 0 0 0 .19-.84v-3.67a17.94 17.94 0 0 0-3-.86 17 17 0 0 0-3.2-.3 8.92 8.92 0 0 0-5 1.29 3.92 3.92 0 0 0-1.94 3.4 4.64 4.64 0 0 0 .41 1.93 4.91 4.91 0 0 0 1.12 1.57 5.23 5.23 0 0 0 1.7 1.05 5.7 5.7 0 0 0 2.07.39zm24.55 2.24a15.59 15.59 0 0 1-5.12-.86 12.28 12.28 0 0 1-4.3-2.49l1.33-2a14.55 14.55 0 0 0 3.85 2.32 11.3 11.3 0 0 0 4.19.77 7.57 7.57 0 0 0 4.32-1.1 3.55 3.55 0 0 0 1.61-3.12 2.71 2.71 0 0 0-.43-1.57 3.74 3.74 0 0 0-1.27-1.1 9.92 9.92 0 0 0-2.11-.84q-1.27-.36-2.95-.75-1.94-.47-3.35-.95a10.25 10.25 0 0 1-2.34-1.08 3.87 3.87 0 0 1-1.38-1.48 4.84 4.84 0 0 1-.45-2.21 6.37 6.37 0 0 1 .67-3 6 6 0 0 1 1.81-2.13 8.2 8.2 0 0 1 2.67-1.27 11.94 11.94 0 0 1 3.25-.43 12.56 12.56 0 0 1 4.69.84 9.27 9.27 0 0 1 3.4 2.21l-1.42 1.72a7.87 7.87 0 0 0-3-1.94 10.87 10.87 0 0 0-3.72-.64 9.26 9.26 0 0 0-2.15.24 5.18 5.18 0 0 0-1.74.75 3.72 3.72 0 0 0-1.18 1.31 3.88 3.88 0 0 0-.43 1.87 3.07 3.07 0 0 0 .3 1.46 2.57 2.57 0 0 0 1 1 8 8 0 0 0 1.74.73q1.05.32 2.56.67 2.15.52 3.78 1a12 12 0 0 1 2.73 1.2 4.76 4.76 0 0 1 1.66 1.68 4.83 4.83 0 0 1 .56 2.41 5.84 5.84 0 0 1-2.36 4.9 10.23 10.23 0 0 1-6.42 1.88z" style="isolation:isolate" fill="#1d1d1b"/><path d="M22.26 52.57V26.14h9.6c17.13 0 17.06 26.43 0 26.43h-9.6zm17.45-13.25c0-4.72-2.85-8.67-7.85-8.67h-4.47v17.42h4.47c4.99 0 7.85-4.07 7.85-8.75z" fill="#3e80c2"/><path d="M67.44 30.65H59v21.92h-5.1V30.65h-8.46v-4.5h22v4.5z" fill="#3e80c2"/><path d="M23.88 76.71L2.31 39.36 23.88 2H67l21.58 37.36L67 76.71H23.88z" fill="none" stroke="#3e80c2" stroke-miterlimit="10" stroke-width="4"/></svg>