<svg xmlns="http://www.w3.org/2000/svg" viewBox="0 0 357.21 78.71"><title>logo</title><g style="isolation:isolate"><g style="isolation:isolate"><path d="M102.7,54.93V24.4h10.36a15.73,15.73,0,0,1,6.39,1.2A13,13,0,0,1,124,28.87a13.79,13.79,0,0,1,2.75,4.84,18.6,18.6,0,0,1,.92,5.91,18.2,18.2,0,0,1-1,6.3,13.67,13.67,0,0,1-2.95,4.82,13.16,13.16,0,0,1-4.6,3.1,15.86,15.86,0,0,1-6,1.1H102.7Zm22-15.31a15.76,15.76,0,0,0-.77-5.05,11.43,11.43,0,0,0-2.26-4A10.12,10.12,0,0,0,118,28a12.42,12.42,0,0,0-4.94-.92h-7.35v25.2h7.35a12.2,12.2,0,0,0,5-1,10.19,10.19,0,0,0,3.63-2.67,11.57,11.57,0,0,0,2.21-4A16,16,0,0,0,124.67,39.62Z" transform="translate(0)" style="fill:#1d1d1b"/></g><g style="isolation:isolate"><path d="M138.47,55.36a7.91,7.91,0,0,1-2.95-.54,7.43,7.43,0,0,1-2.37-1.48A6.68,6.68,0,0,1,131,48.39a5.52,5.52,0,0,1,.69-2.71,6.55,6.55,0,0,1,1.94-2.15,9.47,9.47,0,0,1,3-1.4,13.68,13.68,0,0,1,3.78-.49,20.72,20.72,0,0,1,3.48.3,15.18,15.18,0,0,1,3.14.86v-2a6.5,6.5,0,0,0-1.68-4.71,6.14,6.14,0,0,0-4.64-1.74,9.88,9.88,0,0,0-3.53.69,17,17,0,0,0-3.65,2l-1-1.94a15.13,15.13,0,0,1,8.43-2.92,9,9,0,0,1,6.62,2.37A8.75,8.75,0,0,1,149.95,41v10.1a1,1,0,0,0,1.08,1.2v2.58a7,7,0,0,1-1.12.13,2.51,2.51,0,0,1-1.74-.56A2.1,2.1,0,0,1,147.5,53l-0.09-1.76a10.16,10.16,0,0,1-3.89,3.1A12,12,0,0,1,138.47,55.36Zm0.69-2.24a10.1,10.1,0,0,0,4.19-.86,6.85,6.85,0,0,0,2.9-2.28,2.69,2.69,0,0,0,.58-0.84,2.15,2.15,0,0,0,.19-0.84V44.65a18,18,0,0,0-3-.86,17,17,0,0,0-3.2-.3,8.92,8.92,0,0,0-5,1.29,3.92,3.92,0,0,0-1.94,3.4,4.63,4.63,0,0,0,.41,1.93,4.89,4.89,0,0,0,1.12,1.57,5.22,5.22,0,0,0,1.7,1.05A5.71,5.71,0,0,0,139.16,53.12Z" transform="translate(0)" style="fill:#1d1d1b"/></g><g style="isolation:isolate"><path d="M157.18,54.93V34.85h-3.1V32.53h3.1v-0.6a10.55,10.55,0,0,1,1.76-6.47,5.7,5.7,0,0,1,4.82-2.34,8.63,8.63,0,0,1,2.58.39,7.5,7.5,0,0,1,2.15,1l-0.9,2.11a4.38,4.38,0,0,0-1.48-.73,6.33,6.33,0,0,0-1.78-.26,3.55,3.55,0,0,0-3.14,1.59,8.21,8.21,0,0,0-1.07,4.6v0.69h6.19v2.32H160.1V54.93h-2.92Z" transform="translate(0)" style="fill:#1d1d1b"/><path d="M168.4,53l15.14-18.23H168.75V32.53h18v2L171.63,52.74h15.05v2.19H168.4V53Z" transform="translate(0)" style="fill:#1d1d1b"/></g><g style="isolation:isolate"><path d="M223.48,27.07H212.6V54.93h-3V27.07H198.71V24.4h24.77v2.67Z" transform="translate(0)" style="fill:#1d1d1b"/><path d="M246.27,54.93h-2.92V42.42A10.1,10.1,0,0,0,242,36.7a4.39,4.39,0,0,0-3.85-1.89,6.57,6.57,0,0,0-2.47.49,9.19,9.19,0,0,0-2.3,1.35,9.32,9.32,0,0,0-1.87,2,8.57,8.57,0,0,0-1.18,2.54V54.93h-2.92V23.54h2.92V37.6a10.15,10.15,0,0,1,3.7-4,9.56,9.56,0,0,1,5.12-1.46,6.88,6.88,0,0,1,3.27.71,6.06,6.06,0,0,1,2.19,2,8.66,8.66,0,0,1,1.25,3.05,18.61,18.61,0,0,1,.39,3.93V54.93Z" transform="translate(0)" style="fill:#1d1d1b"/><path d="M262,55.36a10.63,10.63,0,0,1-4.47-.92,11,11,0,0,1-3.5-2.52,11.39,11.39,0,0,1-2.3-3.7,12.14,12.14,0,0,1-.82-4.43,12,12,0,0,1,.84-4.47,11.71,11.71,0,0,1,2.32-3.7,11.27,11.27,0,0,1,3.5-2.54,10.31,10.31,0,0,1,4.43-.95,10.46,10.46,0,0,1,4.45.95A11.2,11.2,0,0,1,270,35.62a11.71,11.71,0,0,1,2.32,3.7,12,12,0,0,1,.84,4.47,12.16,12.16,0,0,1-.82,4.43,11.41,11.41,0,0,1-2.3,3.7,10.92,10.92,0,0,1-3.53,2.52A10.77,10.77,0,0,1,262,55.36Zm-8.13-11.52a9.35,9.35,0,0,0,.65,3.5,9.5,9.5,0,0,0,1.74,2.84,7.86,7.86,0,0,0,2.58,1.91,7.42,7.42,0,0,0,3.16.69,7.24,7.24,0,0,0,3.16-.71,8.39,8.39,0,0,0,2.6-1.94,9.2,9.2,0,0,0,1.76-2.86,9.89,9.89,0,0,0,0-7,9.17,9.17,0,0,0-1.76-2.88,8.41,8.41,0,0,0-2.6-1.94,7.24,7.24,0,0,0-3.16-.71,7.1,7.1,0,0,0-3.14.71,8.33,8.33,0,0,0-2.58,2,9.44,9.44,0,0,0-1.76,2.9A9.69,9.69,0,0,0,253.92,43.84Z" transform="translate(0)" style="fill:#1d1d1b"/><path d="M311.41,54.93h-2.92V42.42q0-3.91-1.25-5.76a4.17,4.17,0,0,0-3.7-1.85,6.28,6.28,0,0,0-2.43.47A7.5,7.5,0,0,0,299,36.61a9.15,9.15,0,0,0-1.7,2,9.81,9.81,0,0,0-1.12,2.6V54.93h-2.92V42.42q0-4-1.2-5.81a4.14,4.14,0,0,0-3.7-1.81,6.6,6.6,0,0,0-4.51,1.76A9.81,9.81,0,0,0,281,41.21V54.93h-2.92V32.53h2.67V37.6a10.6,10.6,0,0,1,3.61-4,8.94,8.94,0,0,1,4.95-1.44,6.37,6.37,0,0,1,4.54,1.59,6.94,6.94,0,0,1,2.09,4.17q3.14-5.76,8.64-5.76a6.82,6.82,0,0,1,3.2.69,5.42,5.42,0,0,1,2.11,2A9.18,9.18,0,0,1,311,37.84a19.92,19.92,0,0,1,.37,4V54.93Z" transform="translate(0)" style="fill:#1d1d1b"/><path d="M323.24,55.36a7.92,7.92,0,0,1-2.95-.54,7.43,7.43,0,0,1-2.36-1.48,6.68,6.68,0,0,1-2.13-4.95,5.52,5.52,0,0,1,.69-2.71,6.54,6.54,0,0,1,1.93-2.15,9.47,9.47,0,0,1,3-1.4,13.68,13.68,0,0,1,3.78-.49,20.73,20.73,0,0,1,3.48.3,15.18,15.18,0,0,1,3.14.86v-2a6.5,6.5,0,0,0-1.68-4.71,6.14,6.14,0,0,0-4.64-1.74,9.88,9.88,0,0,0-3.53.69,17,17,0,0,0-3.66,2l-1-1.94a15.13,15.13,0,0,1,8.43-2.92,9,9,0,0,1,6.62,2.37A8.74,8.74,0,0,1,334.72,41v10.1a1,1,0,0,0,1.08,1.2v2.58a7,7,0,0,1-1.12.13,2.51,2.51,0,0,1-1.74-.56,2.1,2.1,0,0,1-.67-1.55l-0.09-1.76a10.16,10.16,0,0,1-3.89,3.1A12,12,0,0,1,323.24,55.36Zm0.69-2.24a10.09,10.09,0,0,0,4.19-.86A6.84,6.84,0,0,0,331,50a2.66,2.66,0,0,0,.58-0.84,2.15,2.15,0,0,0,.19-0.84V44.65a17.94,17.94,0,0,0-3-.86,17,17,0,0,0-3.2-.3,8.92,8.92,0,0,0-5,1.29,3.92,3.92,0,0,0-1.94,3.4,4.64,4.64,0,0,0,.41,1.93,4.91,4.91,0,0,0,1.12,1.57,5.23,5.23,0,0,0,1.7,1.05A5.7,5.7,0,0,0,323.93,53.12Z" transform="translate(0)" style="fill:#1d1d1b"/><path d="M348.48,55.36a15.59,15.59,0,0,1-5.12-.86,12.28,12.28,0,0,1-4.3-2.49l1.33-2a14.55,14.55,0,0,0,3.85,2.32,11.3,11.3,0,0,0,4.19.77,7.57,7.57,0,0,0,4.32-1.1,3.55,3.55,0,0,0,1.61-3.12,2.71,2.71,0,0,0-.43-1.57,3.74,3.74,0,0,0-1.27-1.1,9.92,9.92,0,0,0-2.11-.84q-1.27-.36-2.95-0.75-1.94-.47-3.35-0.95a10.25,10.25,0,0,1-2.34-1.08,3.87,3.87,0,0,1-1.38-1.48,4.84,4.84,0,0,1-.45-2.21,6.37,6.37,0,0,1,.67-3,6,6,0,0,1,1.81-2.13,8.2,8.2,0,0,1,2.67-1.27,11.94,11.94,0,0,1,3.25-.43,12.56,12.56,0,0,1,4.69.84,9.27,9.27,0,0,1,3.4,2.21l-1.42,1.72a7.87,7.87,0,0,0-3-1.94,10.87,10.87,0,0,0-3.72-.64,9.26,9.26,0,0,0-2.15.24,5.18,5.18,0,0,0-1.74.75,3.72,3.72,0,0,0-1.18,1.31,3.88,3.88,0,0,0-.43,1.87,3.07,3.07,0,0,0,.3,1.46,2.57,2.57,0,0,0,1,1,8,8,0,0,0,1.74.73q1.05,0.32,2.56.67,2.15,0.52,3.78,1a12,12,0,0,1,2.73,1.2,4.76,4.76,0,0,1,1.66,1.68,4.83,4.83,0,0,1,.56,2.41,5.84,5.84,0,0,1-2.36,4.9A10.23,10.23,0,0,1,348.48,55.36Z" transform="translate(0)" style="fill:#1d1d1b"/></g></g><path d="M22.26,52.57V26.14h9.6c17.13,0,17.06,26.43,0,26.43h-9.6ZM39.71,39.32c0-4.72-2.85-8.67-7.85-8.67H27.39V48.07h4.47C36.85,48.07,39.71,44,39.71,39.32Z" transform="translate(0)" style="fill:#3e80c2"/><path d="M67.44,30.65H59V52.57H53.9V30.65H45.44v-4.5h22v4.5Z" transform="translate(0)" style="fill:#3e80c2"/><path d="M23.88,76.71L2.31,39.36,23.88,2H67L88.58,39.36,67,76.71H23.88Z" transform="translate(0)" style="fill:none;stroke:#3e80c2;stroke-miterlimit:10;stroke-width:4px"/></svg>